<svg width="168" height="168" viewBox="0 0 168 168" fill="none" xmlns="http://www.w3.org/2000/svg">
<rect width="168" height="168" rx="20" fill="#002946"/>
<path d="M53.6468 73.7812C54.5449 71.0172 58.4551 71.0172 59.3532 73.7812L66.2664 95.0578C66.668 96.2938 67.8198 97.1307 69.1195 97.1307H91.4911C94.3972 97.1307 95.6056 100.85 93.2544 102.558L75.1555 115.707C74.104 116.471 73.664 117.825 74.0657 119.062L80.9788 140.338C81.8769 143.102 78.7135 145.4 76.3623 143.692L58.2634 130.543C57.2119 129.779 55.7881 129.779 54.7366 130.543L36.6377 143.692C34.2865 145.4 31.1231 143.102 32.0212 140.338L38.9343 119.062C39.336 117.825 38.896 116.471 37.8445 115.707L19.7456 102.558C17.3944 100.85 18.6028 97.1307 21.5089 97.1307H43.8805C45.1801 97.1307 46.332 96.2938 46.7336 95.0578L53.6468 73.7812Z" fill="#FFD6A7"/>
<path d="M83 75L137 21M68.5 66.5L106 11M94.5 89L153.5 45.5" stroke="#FFD6A7" stroke-width="7" stroke-linecap="round"/>
</svg>
